<svg width="1440" height="460" viewBox="0 0 1440 460" fill="none" xmlns="http://www.w3.org/2000/svg">
<mask id="mask0_102_108" style="mask-type:luminance" maskUnits="userSpaceOnUse" x="0" y="-604" width="1440" height="1441">
<path d="M1440 -603.499H0V836.51H1440V-603.499Z" fill="white"/>
</mask>
<g mask="url(#mask0_102_108)">
<path d="M873.251 -432.678L921.877 -406.291L995.596 -386.86L1043.6 -379.66L1140.51 -341.756L1210.57 -187.028L1240.4 -101.74L1220.4 62.3482" stroke="#F3F3F3" stroke-width="2.88" stroke-miterlimit="10" stroke-linecap="round" stroke-linejoin="round"/>
<path d="M774.101 -133.046L793.705 -112.252L845.608 -92.1326L873.251 -65.8958L1009.2 -5.19119L1022.07 0.467997L1050.72 73.5192L1052.84 123.136L1088.83 228.521" stroke="#F3F3F3" stroke-width="2.88" stroke-miterlimit="10" stroke-linecap="round" stroke-linejoin="round"/>
<path d="M752.224 -86.2515L866.701 -26.2841L920.203 5.61186L983.482 58.0855V143.169L1006.42 205.703" stroke="#F3F3F3" stroke-width="2.88" stroke-miterlimit="10" stroke-linecap="round" stroke-linejoin="round"/>
<path d="M752.224 -44.8052L836.127 6.64028" stroke="#F3F3F3" stroke-width="2.88" stroke-miterlimit="10" stroke-linecap="round" stroke-linejoin="round"/>
<path d="M791.081 -65.8955L761.239 -14.9656L787.156 3.04018" stroke="#F3F3F3" stroke-width="2.88" stroke-miterlimit="10" stroke-linecap="round" stroke-linejoin="round"/>
<path d="M825.031 -48.4053L752.224 57.2245L791.551 34.2968" stroke="#F3F3F3" stroke-width="2.88" stroke-miterlimit="10" stroke-linecap="round" stroke-linejoin="round"/>
<path d="M809.6 82.2603L783.245 12.2188" stroke="#F3F3F3" stroke-width="2.88" stroke-miterlimit="10" stroke-linecap="round" stroke-linejoin="round"/>
<path d="M809.6 -26.0161L910.428 35.4488L906.313 49.3391L952.099 67.6991" stroke="#F3F3F3" stroke-width="2.88" stroke-miterlimit="10" stroke-linecap="round" stroke-linejoin="round"/>
<path d="M964.446 42.3003L922.023 127.188" stroke="#F3F3F3" stroke-width="2.88" stroke-miterlimit="10" stroke-linecap="round" stroke-linejoin="round"/>
<path d="M902.48 -4.95459L867.854 106.608" stroke="#F3F3F3" stroke-width="2.88" stroke-miterlimit="10" stroke-linecap="round" stroke-linejoin="round"/>
<path d="M856.927 57.2246L840.565 95.3961" stroke="#F3F3F3" stroke-width="2.88" stroke-miterlimit="10" stroke-linecap="round" stroke-linejoin="round"/>
<path d="M888.486 40.1345L858.983 28.459" stroke="#F3F3F3" stroke-width="2.88" stroke-miterlimit="10" stroke-linecap="round" stroke-linejoin="round"/>
<path d="M906.313 67.6992L888.486 116.501" stroke="#F3F3F3" stroke-width="2.88" stroke-miterlimit="10" stroke-linecap="round" stroke-linejoin="round"/>
<path d="M925.975 57.2246L902.479 118.796" stroke="#F3F3F3" stroke-width="2.88" stroke-miterlimit="10" stroke-linecap="round" stroke-linejoin="round"/>
<path d="M836.127 50.8281L823.049 88.0118" stroke="#F3F3F3" stroke-width="2.88" stroke-miterlimit="10" stroke-linecap="round" stroke-linejoin="round"/>
<path d="M924.408 -43.0542L909.518 -0.758508" stroke="#F3F3F3" stroke-width="2.88" stroke-miterlimit="10" stroke-linecap="round" stroke-linejoin="round"/>
<path d="M924.408 9.09657L934.638 -14.9658L954.547 -7.2503" stroke="#F3F3F3" stroke-width="2.88" stroke-miterlimit="10" stroke-linecap="round" stroke-linejoin="round"/>
<path d="M952.099 32.0619L954.547 9.09676H1006.12L1009.2 -5.19092" stroke="#F3F3F3" stroke-width="2.88" stroke-miterlimit="10" stroke-linecap="round" stroke-linejoin="round"/>
<path d="M983.483 58.0855V9.09668" stroke="#F3F3F3" stroke-width="2.88" stroke-miterlimit="10" stroke-linecap="round" stroke-linejoin="round"/>
<path d="M954.547 28.459L1040.41 47.2395" stroke="#F3F3F3" stroke-width="2.88" stroke-miterlimit="10" stroke-linecap="round" stroke-linejoin="round"/>
<path d="M983.483 65.2886L1050.72 73.5196L1184.12 34.2969L1232.68 71.8434" stroke="#F3F3F3" stroke-width="2.88" stroke-miterlimit="10" stroke-linecap="round" stroke-linejoin="round"/>
<path d="M1170.82 87.1648L1126.5 20.5418V-12.3939L1156.34 -49.1369L1161.58 -139.402" stroke="#F3F3F3" stroke-width="2.88" stroke-miterlimit="10" stroke-linecap="round" stroke-linejoin="round"/>
<path d="M1122.8 52.3257L1139.36 95.9606L1215.01 144.768L1322.57 192.904L1454.67 236.64" stroke="#F3F3F3" stroke-width="2.88" stroke-miterlimit="10" stroke-linecap="round" stroke-linejoin="round"/>
<path d="M1120.59 101.507L1100.26 23.1885" stroke="#F3F3F3" stroke-width="2.88" stroke-miterlimit="10" stroke-linecap="round" stroke-linejoin="round"/>
<path d="M1074.13 -14.9655L954.547 -71.042L934.638 -74.1265L922.023 -63.8391L1068.36 -0.758444" stroke="#F3F3F3" stroke-width="2.88" stroke-miterlimit="10" stroke-linecap="round" stroke-linejoin="round"/>
<path d="M1233.24 -43.0542L1156.34 -49.1367L1149.65 18.2063" stroke="#F3F3F3" stroke-width="2.88" stroke-miterlimit="10" stroke-linecap="round" stroke-linejoin="round"/>
<path d="M1225.89 17.2528L1151.6 3.04004" stroke="#F3F3F3" stroke-width="2.88" stroke-miterlimit="10" stroke-linecap="round" stroke-linejoin="round"/>
<path d="M1052.84 -7.45166L1037.63 40.1346L1080.71 25.1615L1149.65 18.2063L1184.12 34.2968" stroke="#F3F3F3" stroke-width="2.88" stroke-miterlimit="10" stroke-linecap="round" stroke-linejoin="round"/>
<path d="M700.856 -31.4277L686.39 28.459" stroke="#F3F3F3" stroke-width="2.88" stroke-miterlimit="10" stroke-linecap="round" stroke-linejoin="round"/>
<path d="M1228.9 -7.45166L1302.64 20.8415" stroke="#F3F3F3" stroke-width="2.88" stroke-miterlimit="10" stroke-linecap="round" stroke-linejoin="round"/>
<path d="M1260.28 65.9192L1280.17 12.2188" stroke="#F3F3F3" stroke-width="2.88" stroke-miterlimit="10" stroke-linecap="round" stroke-linejoin="round"/>
<path d="M1302.8 32.0617L1276.11 23.1885" stroke="#F3F3F3" stroke-width="2.88" stroke-miterlimit="10" stroke-linecap="round" stroke-linejoin="round"/>
<path d="M1302.64 40.1348L1270.23 42.3005" stroke="#F3F3F3" stroke-width="2.88" stroke-miterlimit="10" stroke-linecap="round" stroke-linejoin="round"/>
<path d="M1342.16 -15.4668V50.828" stroke="#F3F3F3" stroke-width="2.88" stroke-miterlimit="10" stroke-linecap="round" stroke-linejoin="round"/>
<path d="M1390.89 -8.12012L1396 46.1535" stroke="#F3F3F3" stroke-width="2.88" stroke-miterlimit="10" stroke-linecap="round" stroke-linejoin="round"/>
<path d="M1452.56 10.1479L1394.82 33.5911" stroke="#F3F3F3" stroke-width="2.88" stroke-miterlimit="10" stroke-linecap="round" stroke-linejoin="round"/>
<path d="M730.028 -186.518L643.43 -256.759L620.369 -238.655L585.749 -169.357L621.965 -118.758L476.032 23.4479L316.705 77.3183L240.281 108.664L198.547 137.424L227.402 176.699" stroke="#F3F3F3" stroke-width="2.88" stroke-miterlimit="10" stroke-linecap="round" stroke-linejoin="round"/>
<path d="M0 218.199L55.1002 150.888L71.0323 126.921L103.211 79.9019L235.261 -40.03L432.95 -213.628L584.974 -403.581" stroke="#F3F3F3" stroke-width="2.88" stroke-miterlimit="10" stroke-linecap="round" stroke-linejoin="round"/>
<path d="M375.105 136.5L349.272 57.2246L270.446 -65.8954L244.204 -87.8352L291.205 -142.192L367.099 -271.375L411.684 -347.073L451.224 -428.381" stroke="#F3F3F3" stroke-width="2.88" stroke-miterlimit="10" stroke-linecap="round" stroke-linejoin="round"/>
<path d="M645.794 19.4127L643.804 -31.4279L603.858 -76.1514L594.271 -97.5354L573.69 -114.193" stroke="#F3F3F3" stroke-width="2.88" stroke-miterlimit="10" stroke-linecap="round" stroke-linejoin="round"/>
<path d="M251.603 -267.207L412.016 -130.891L515.647 -15.1552L573.69 74.24" stroke="#F3F3F3" stroke-width="2.88" stroke-miterlimit="10" stroke-linecap="round" stroke-linejoin="round"/>
<path d="M532.874 88.6076L504.711 -4.5" stroke="#F3F3F3" stroke-width="2.88" stroke-miterlimit="10" stroke-linecap="round" stroke-linejoin="round"/>
<path d="M521.021 92.4843L486.51 13.2383" stroke="#F3F3F3" stroke-width="2.88" stroke-miterlimit="10" stroke-linecap="round" stroke-linejoin="round"/>
<path d="M495.369 4.6068L421.165 -75.5637L347.714 -138.78L308.56 -171.733L232.836 -238.655" stroke="#F3F3F3" stroke-width="2.88" stroke-miterlimit="10" stroke-linecap="round" stroke-linejoin="round"/>
<path d="M214.24 -211.678L291.205 -142.192L395.107 -44.0272L454.435 30.7492" stroke="#F3F3F3" stroke-width="2.88" stroke-miterlimit="10" stroke-linecap="round" stroke-linejoin="round"/>
<path d="M492.01 101.689L420.995 42.0555L291.205 -89.261L265.317 -112.252" stroke="#F3F3F3" stroke-width="2.88" stroke-miterlimit="10" stroke-linecap="round" stroke-linejoin="round"/>
<path d="M492.011 -154.951L438.46 -101.36L421.165 -75.564L395.107 -44.028L369.092 -10.4587L311.377 30.7484" stroke="#F3F3F3" stroke-width="2.88" stroke-miterlimit="10" stroke-linecap="round" stroke-linejoin="round"/>
<path d="M392.512 13.2383L368.917 36.1976L378.662 56.3692" stroke="#F3F3F3" stroke-width="2.88" stroke-miterlimit="10" stroke-linecap="round" stroke-linejoin="round"/>
<path d="M389.036 52.8613L412.016 125.8" stroke="#F3F3F3" stroke-width="2.88" stroke-miterlimit="10" stroke-linecap="round" stroke-linejoin="round"/>
<path d="M430.721 50.2231L450.106 114.499L497.313 203.096L521.021 271.689" stroke="#F3F3F3" stroke-width="2.88" stroke-miterlimit="10" stroke-linecap="round" stroke-linejoin="round"/>
<path d="M430.721 0.860201L466.534 -26.5459" stroke="#F3F3F3" stroke-width="2.88" stroke-miterlimit="10" stroke-linecap="round" stroke-linejoin="round"/>
<path d="M451.224 67.4399L503.767 52.8613" stroke="#F3F3F3" stroke-width="2.88" stroke-miterlimit="10" stroke-linecap="round" stroke-linejoin="round"/>
<path d="M471.9 84.7977L466.534 63.1919" stroke="#F3F3F3" stroke-width="2.88" stroke-miterlimit="10" stroke-linecap="round" stroke-linejoin="round"/>
<path d="M570.384 19.4128L596.312 -5.2832L615.197 13.2381L632.275 -5.2832L645.151 3.04" stroke="#F3F3F3" stroke-width="2.88" stroke-miterlimit="10" stroke-linecap="round" stroke-linejoin="round"/>
<path d="M292.487 87.2515L219.698 -25.8951L140.192 -122.012L144.558 -65.8954L172.189 17.2531" stroke="#F3F3F3" stroke-width="2.88" stroke-miterlimit="10" stroke-linecap="round" stroke-linejoin="round"/>
<path d="M159.852 28.459L202.418 78.4673L232.929 56.3691" stroke="#F3F3F3" stroke-width="2.88" stroke-miterlimit="10" stroke-linecap="round" stroke-linejoin="round"/>
<path d="M265.19 98.4459L192.822 -1.48437L154.8 -58.9692L100.423 -102.564L38.3096 -147.581" stroke="#F3F3F3" stroke-width="2.88" stroke-miterlimit="10" stroke-linecap="round" stroke-linejoin="round"/>
<path d="M186.797 89.3306L170.957 98.4458" stroke="#F3F3F3" stroke-width="2.88" stroke-miterlimit="10" stroke-linecap="round" stroke-linejoin="round"/>
<path d="M198.547 137.424L133.517 52.3773L45.9272 -10.7178" stroke="#F3F3F3" stroke-width="2.88" stroke-miterlimit="10" stroke-linecap="round" stroke-linejoin="round"/>
<path d="M0 -58.9692L49.3632 3.04006L84.096 52.8612L174.96 161.454" stroke="#F3F3F3" stroke-width="2.88" stroke-miterlimit="10" stroke-linecap="round" stroke-linejoin="round"/>
<path d="M6.05078 92.4841L103.21 79.9014" stroke="#F3F3F3" stroke-width="2.88" stroke-miterlimit="10" stroke-linecap="round" stroke-linejoin="round"/>
<path d="M76.5907 118.796L-14.8032 50.2231" stroke="#F3F3F3" stroke-width="2.88" stroke-miterlimit="10" stroke-linecap="round" stroke-linejoin="round"/>
<path d="M-14.8032 28.4588L54.6307 -19.0814L151.399 -130.892" stroke="#F3F3F3" stroke-width="2.88" stroke-miterlimit="10" stroke-linecap="round" stroke-linejoin="round"/>
<path d="M99.0229 -8.19173L114.388 8.34814L132.903 -8.19173L115.963 -24.5674" stroke="#F3F3F3" stroke-width="2.88" stroke-miterlimit="10" stroke-linecap="round" stroke-linejoin="round"/>
<path d="M109.659 -12.8433L123.198 0.476738" stroke="#F3F3F3" stroke-width="2.88" stroke-miterlimit="10" stroke-linecap="round" stroke-linejoin="round"/>
<path d="M116.43 6.5249L149.671 37.7067" stroke="#F3F3F3" stroke-width="2.88" stroke-miterlimit="10" stroke-linecap="round" stroke-linejoin="round"/>
<path d="M129.646 -5.2832L156.934 28.4588" stroke="#F3F3F3" stroke-width="2.88" stroke-miterlimit="10" stroke-linecap="round" stroke-linejoin="round"/>
<path d="M55.3218 11.5879L114.388 67.6989" stroke="#F3F3F3" stroke-width="2.88" stroke-miterlimit="10" stroke-linecap="round" stroke-linejoin="round"/>
<path d="M270.15 8.34814L251.603 23.6985" stroke="#F3F3F3" stroke-width="2.88" stroke-miterlimit="10" stroke-linecap="round" stroke-linejoin="round"/>
<path d="M292.487 40.8115L272.618 56.3693" stroke="#F3F3F3" stroke-width="2.88" stroke-miterlimit="10" stroke-linecap="round" stroke-linejoin="round"/>
<path d="M240.281 108.664L274.74 164.421" stroke="#F3F3F3" stroke-width="2.88" stroke-miterlimit="10" stroke-linecap="round" stroke-linejoin="round"/>
<path d="M282.554 92.4844L307.391 155.545" stroke="#F3F3F3" stroke-width="2.88" stroke-miterlimit="10" stroke-linecap="round" stroke-linejoin="round"/>
<path d="M304.407 82.3613L334.339 148.06" stroke="#F3F3F3" stroke-width="2.88" stroke-miterlimit="10" stroke-linecap="round" stroke-linejoin="round"/>
<path d="M295.675 125.8H307.391L319.372 152.233" stroke="#F3F3F3" stroke-width="2.88" stroke-miterlimit="10" stroke-linecap="round" stroke-linejoin="round"/>
<path d="M176.555 108.664L82.8892 184.034" stroke="#F3F3F3" stroke-width="2.88" stroke-miterlimit="10" stroke-linecap="round" stroke-linejoin="round"/>
<path d="M154.569 105.652L165.557 117.512" stroke="#F3F3F3" stroke-width="2.88" stroke-miterlimit="10" stroke-linecap="round" stroke-linejoin="round"/>
<path d="M-14.8032 111.582L45.1382 139.016L55.1001 150.888L-14.8032 209.26" stroke="#F3F3F3" stroke-width="2.88" stroke-miterlimit="10" stroke-linecap="round" stroke-linejoin="round"/>
<path d="M-6.55469 185.482L26.8792 130.659" stroke="#F3F3F3" stroke-width="2.88" stroke-miterlimit="10" stroke-linecap="round" stroke-linejoin="round"/>
<path d="M-6.55469 342.707H17.2024L26.8792 360.108L246.836 203.384" stroke="#F3F3F3" stroke-width="2.88" stroke-miterlimit="10" stroke-linecap="round" stroke-linejoin="round"/>
<path d="M265.19 196.432L307.524 179.673" stroke="#F3F3F3" stroke-width="2.88" stroke-miterlimit="10" stroke-linecap="round" stroke-linejoin="round"/>
<path d="M304.407 156.366L319.372 212.537L375.722 196.432" stroke="#F3F3F3" stroke-width="2.88" stroke-miterlimit="10" stroke-linecap="round" stroke-linejoin="round"/>
<path d="M383.167 218.199L340.064 232.807" stroke="#F3F3F3" stroke-width="2.88" stroke-miterlimit="10" stroke-linecap="round" stroke-linejoin="round"/>
<path d="M390.292 238.964L193.833 285.286" stroke="#F3F3F3" stroke-width="2.88" stroke-miterlimit="10" stroke-linecap="round" stroke-linejoin="round"/>
<path d="M226.045 218.199L295.675 373.639L304.407 404.573L395.726 393.94" stroke="#F3F3F3" stroke-width="2.88" stroke-miterlimit="10" stroke-linecap="round" stroke-linejoin="round"/>
<path d="M412.016 301.849L334.339 327.149L319.372 402.83L331.796 486.128" stroke="#F3F3F3" stroke-width="2.88" stroke-miterlimit="10" stroke-linecap="round" stroke-linejoin="round"/>
<path d="M202.815 470.245L307.524 455.091L435.917 449.299L479.834 474.559L531.038 531.638L753.054 523.168L1069.25 535.08H1251.6L1335.06 545.474L1403.34 566.449L1452.56 596.349" stroke="#F3F3F3" stroke-width="2.88" stroke-miterlimit="10" stroke-linecap="round" stroke-linejoin="round"/>
<path d="M304.408 404.573L103.211 410.33L26.8792 360.108L-6.55469 385.219" stroke="#F3F3F3" stroke-width="2.88" stroke-miterlimit="10" stroke-linecap="round" stroke-linejoin="round"/>
<path d="M-6.55469 363.328L197.205 354.328" stroke="#F3F3F3" stroke-width="2.88" stroke-miterlimit="10" stroke-linecap="round" stroke-linejoin="round"/>
<path d="M126.011 289.474L174.96 355.31L176.555 385.219L199.376 407.577" stroke="#F3F3F3" stroke-width="2.88" stroke-miterlimit="10" stroke-linecap="round" stroke-linejoin="round"/>
<path d="M103.21 358.827L106.759 479.689" stroke="#F3F3F3" stroke-width="2.88" stroke-miterlimit="10" stroke-linecap="round" stroke-linejoin="round"/>
<path d="M202.815 477.664L103.21 410.33L126.011 389.104L122.236 358.827" stroke="#F3F3F3" stroke-width="2.88" stroke-miterlimit="10" stroke-linecap="round" stroke-linejoin="round"/>
<path d="M174.96 370.418H123.682" stroke="#F3F3F3" stroke-width="2.88" stroke-miterlimit="10" stroke-linecap="round" stroke-linejoin="round"/>
<path d="M176.555 385.219L126.011 389.104" stroke="#F3F3F3" stroke-width="2.88" stroke-miterlimit="10" stroke-linecap="round" stroke-linejoin="round"/>
<path d="M60.3157 382.108L38.3096 412.947L45.9272 421.939" stroke="#F3F3F3" stroke-width="2.88" stroke-miterlimit="10" stroke-linecap="round" stroke-linejoin="round"/>
<path d="M103.211 410.33L60.3158 418.244L-14.8032 461.931" stroke="#F3F3F3" stroke-width="2.88" stroke-miterlimit="10" stroke-linecap="round" stroke-linejoin="round"/>
<path d="M76.7262 481.362L76.5908 442.592" stroke="#F3F3F3" stroke-width="2.88" stroke-miterlimit="10" stroke-linecap="round" stroke-linejoin="round"/>
<path d="M109.599 215.936L76.5908 232.807" stroke="#F3F3F3" stroke-width="2.88" stroke-miterlimit="10" stroke-linecap="round" stroke-linejoin="round"/>
<path d="M126.011 235.562L79.0645 260.299" stroke="#F3F3F3" stroke-width="2.88" stroke-miterlimit="10" stroke-linecap="round" stroke-linejoin="round"/>
<path d="M141.382 253.96L106.759 278.267" stroke="#F3F3F3" stroke-width="2.88" stroke-miterlimit="10" stroke-linecap="round" stroke-linejoin="round"/>
<path d="M93.0962 312.928V345.93" stroke="#F3F3F3" stroke-width="2.88" stroke-miterlimit="10" stroke-linecap="round" stroke-linejoin="round"/>
<path d="M292.063 274.699L400.527 268.677" stroke="#F3F3F3" stroke-width="2.88" stroke-miterlimit="10" stroke-linecap="round" stroke-linejoin="round"/>
<path d="M378.662 451.882V430.349L562.383 78.4673" stroke="#F3F3F3" stroke-width="2.88" stroke-miterlimit="10" stroke-linecap="round" stroke-linejoin="round"/>
<path d="M323.674 431.676L378.662 430.349" stroke="#F3F3F3" stroke-width="2.88" stroke-miterlimit="10" stroke-linecap="round" stroke-linejoin="round"/>
<path d="M402.227 385.219L438.322 376.611" stroke="#F3F3F3" stroke-width="2.88" stroke-miterlimit="10" stroke-linecap="round" stroke-linejoin="round"/>
<path d="M476.436 243.08L402.227 128.66L570.384 260.299L471.9 281.747" stroke="#F3F3F3" stroke-width="2.88" stroke-miterlimit="10" stroke-linecap="round" stroke-linejoin="round"/>
<path d="M479.834 105.461L497.313 203.096" stroke="#F3F3F3" stroke-width="2.88" stroke-miterlimit="10" stroke-linecap="round" stroke-linejoin="round"/>
<path d="M536.812 127.439L486.584 143.17" stroke="#F3F3F3" stroke-width="2.88" stroke-miterlimit="10" stroke-linecap="round" stroke-linejoin="round"/>
<path d="M573.69 203.097L513.711 215.936" stroke="#F3F3F3" stroke-width="2.88" stroke-miterlimit="10" stroke-linecap="round" stroke-linejoin="round"/>
<path d="M572.014 218.199L629.202 215.936" stroke="#F3F3F3" stroke-width="2.88" stroke-miterlimit="10" stroke-linecap="round" stroke-linejoin="round"/>
<path d="M643.251 257.753L570.384 260.299" stroke="#F3F3F3" stroke-width="2.88" stroke-miterlimit="10" stroke-linecap="round" stroke-linejoin="round"/>
<path d="M569.036 301.849L654.212 289.474" stroke="#F3F3F3" stroke-width="2.88" stroke-miterlimit="10" stroke-linecap="round" stroke-linejoin="round"/>
<path d="M567.714 345.478L669.603 333.405" stroke="#F3F3F3" stroke-width="2.88" stroke-miterlimit="10" stroke-linecap="round" stroke-linejoin="round"/>
<path d="M595.238 452.908L577.192 382.109L579.465 351.083" stroke="#F3F3F3" stroke-width="2.88" stroke-miterlimit="10" stroke-linecap="round" stroke-linejoin="round"/>
<path d="M257.512 221.488L279.475 212.537" stroke="#F3F3F3" stroke-width="2.88" stroke-miterlimit="10" stroke-linecap="round" stroke-linejoin="round"/>
<path d="M286.358 458.155L295.675 515.894" stroke="#F3F3F3" stroke-width="2.88" stroke-miterlimit="10" stroke-linecap="round" stroke-linejoin="round"/>
<path d="M1130.66 535.08L1138.12 437.601L1253.84 449.299" stroke="#F3F3F3" stroke-width="2.88" stroke-miterlimit="10" stroke-linecap="round" stroke-linejoin="round"/>
<path d="M1174.65 423.586L1166.81 535.08L1147.17 645.441L1094.99 637.939" stroke="#F3F3F3" stroke-width="2.88" stroke-miterlimit="10" stroke-linecap="round" stroke-linejoin="round"/>
<path d="M1452.56 509.897L1350.23 470.942L1253.84 449.299L1208.88 410.56L1197.68 443.62" stroke="#F3F3F3" stroke-width="2.88" stroke-miterlimit="10" stroke-linecap="round" stroke-linejoin="round"/>
<path d="M1304.24 57.7432L1306.5 95.3963L1313.19 214.772L1304.35 237.979L1297.13 275.022L1289.99 362.657L1282.24 382.866L1253.84 449.299L1251.6 535.08L1249.82 637.939L1246.58 705.205L1244.26 813.775" stroke="#F3F3F3" stroke-width="2.88" stroke-miterlimit="10" stroke-linecap="round" stroke-linejoin="round"/>
<path d="M1222.46 405.428H1272.59" stroke="#F3F3F3" stroke-width="2.88" stroke-miterlimit="10" stroke-linecap="round" stroke-linejoin="round"/>
<path d="M1270.4 410.56L1353.63 434.764" stroke="#F3F3F3" stroke-width="2.88" stroke-miterlimit="10" stroke-linecap="round" stroke-linejoin="round"/>
<path d="M1356.77 416.023L1394.42 423.586" stroke="#F3F3F3" stroke-width="2.88" stroke-miterlimit="10" stroke-linecap="round" stroke-linejoin="round"/>
<path d="M1388.62 389.271L1382.81 419.805" stroke="#F3F3F3" stroke-width="2.88" stroke-miterlimit="10" stroke-linecap="round" stroke-linejoin="round"/>
<path d="M1452.56 371.864L1366.9 355.676" stroke="#F3F3F3" stroke-width="2.88" stroke-miterlimit="10" stroke-linecap="round" stroke-linejoin="round"/>
<path d="M1450.2 401.768L1338.63 379.9L1226.61 349.997L1158.5 323.547" stroke="#F3F3F3" stroke-width="2.88" stroke-miterlimit="10" stroke-linecap="round" stroke-linejoin="round"/>
<path d="M1454.66 147.829L1343.85 135.854" stroke="#F3F3F3" stroke-width="2.88" stroke-miterlimit="10" stroke-linecap="round" stroke-linejoin="round"/>
<path d="M1391.16 216.287L1404.69 142.426" stroke="#F3F3F3" stroke-width="2.88" stroke-miterlimit="10" stroke-linecap="round" stroke-linejoin="round"/>
<path d="M1361.89 166.99L1334.96 311.171L1368.58 345.61L1330.72 571.356L1301.34 721.557" stroke="#F3F3F3" stroke-width="2.88" stroke-miterlimit="10" stroke-linecap="round" stroke-linejoin="round"/>
<path d="M1307.81 118.796H1210.54L1201.62 197.812L1186.89 254.046L1163.68 301.797L1143.16 371.864L1134.82 410.56L1110.89 448.107" stroke="#F3F3F3" stroke-width="2.88" stroke-miterlimit="10" stroke-linecap="round" stroke-linejoin="round"/>
<path d="M1045.93 473.35L1073.53 410.56" stroke="#F3F3F3" stroke-width="2.88" stroke-miterlimit="10" stroke-linecap="round" stroke-linejoin="round"/>
<path d="M976.45 410.56H1134.82H1208.88" stroke="#F3F3F3" stroke-width="2.88" stroke-miterlimit="10" stroke-linecap="round" stroke-linejoin="round"/>
<path d="M1143.16 371.864L1179.75 383.468L1190.46 410.56" stroke="#F3F3F3" stroke-width="2.88" stroke-miterlimit="10" stroke-linecap="round" stroke-linejoin="round"/>
<path d="M1232.19 401.768L1214.56 368.743L1272.59 272.686" stroke="#F3F3F3" stroke-width="2.88" stroke-miterlimit="10" stroke-linecap="round" stroke-linejoin="round"/>
<path d="M1179.75 383.468L1214.56 368.743" stroke="#F3F3F3" stroke-width="2.88" stroke-miterlimit="10" stroke-linecap="round" stroke-linejoin="round"/>
<path d="M1214.56 345.32L1229.24 290.965" stroke="#F3F3F3" stroke-width="2.88" stroke-miterlimit="10" stroke-linecap="round" stroke-linejoin="round"/>
<path d="M1186.09 309.953L1002.01 243.779L955.906 389.271" stroke="#F3F3F3" stroke-width="2.88" stroke-miterlimit="10" stroke-linecap="round" stroke-linejoin="round"/>
<path d="M1051.42 393.939L961.422 371.864" stroke="#F3F3F3" stroke-width="2.88" stroke-miterlimit="10" stroke-linecap="round" stroke-linejoin="round"/>
<path d="M1073.53 377.365L969.016 347.903" stroke="#F3F3F3" stroke-width="2.88" stroke-miterlimit="10" stroke-linecap="round" stroke-linejoin="round"/>
<path d="M1080.23 323.547L985.254 296.659L893.278 270.477" stroke="#F3F3F3" stroke-width="2.88" stroke-miterlimit="10" stroke-linecap="round" stroke-linejoin="round"/>
<path d="M1062.76 385.32L1071 355.676L1134.82 166.765L1148.66 162.569L1174.65 250.188" stroke="#F3F3F3" stroke-width="2.88" stroke-miterlimit="10" stroke-linecap="round" stroke-linejoin="round"/>
<path d="M1286.44 266.808L1186.89 254.046L1113.18 230.813L1002.01 220.339L867.854 180.408L784.452 128.66L616.533 47.2393" stroke="#F3F3F3" stroke-width="2.88" stroke-miterlimit="10" stroke-linecap="round" stroke-linejoin="round"/>
<path d="M596.312 105.462L647.326 88.6079L662.273 69.4185" stroke="#F3F3F3" stroke-width="2.88" stroke-miterlimit="10" stroke-linecap="round" stroke-linejoin="round"/>
<path d="M698.388 33.5913L670.731 73.5196" stroke="#F3F3F3" stroke-width="2.88" stroke-miterlimit="10" stroke-linecap="round" stroke-linejoin="round"/>
<path d="M609.742 146.936L632.601 128.66L680.933 78.4674L747.395 55.0962" stroke="#F3F3F3" stroke-width="2.88" stroke-miterlimit="10" stroke-linecap="round" stroke-linejoin="round"/>
<path d="M647.326 88.6079L662.273 99.3791L725.103 132.047" stroke="#F3F3F3" stroke-width="2.88" stroke-miterlimit="10" stroke-linecap="round" stroke-linejoin="round"/>
<path d="M629.294 131.304L719.724 162.569" stroke="#F3F3F3" stroke-width="2.88" stroke-miterlimit="10" stroke-linecap="round" stroke-linejoin="round"/>
<path d="M639.297 246.164L714.862 231.732" stroke="#F3F3F3" stroke-width="2.88" stroke-miterlimit="10" stroke-linecap="round" stroke-linejoin="round"/>
<path d="M622.109 193.284L693.622 169.697L834.518 220.339" stroke="#F3F3F3" stroke-width="2.88" stroke-miterlimit="10" stroke-linecap="round" stroke-linejoin="round"/>
<path d="M759.346 253.96L776.16 187.547" stroke="#F3F3F3" stroke-width="2.88" stroke-miterlimit="10" stroke-linecap="round" stroke-linejoin="round"/>
<path d="M759.346 193.319L767.753 172.819" stroke="#F3F3F3" stroke-width="2.88" stroke-miterlimit="10" stroke-linecap="round" stroke-linejoin="round"/>
<path d="M728.312 347.903L752.224 310.103L856.927 191.118L914.328 124.458" stroke="#F3F3F3" stroke-width="2.88" stroke-miterlimit="10" stroke-linecap="round" stroke-linejoin="round"/>
<path d="M803.851 393.988L813.793 301.849L840.565 229.929L851.613 197.158" stroke="#F3F3F3" stroke-width="2.88" stroke-miterlimit="10" stroke-linecap="round" stroke-linejoin="round"/>
<path d="M809.6 335.715H796.421V351.083" stroke="#F3F3F3" stroke-width="2.88" stroke-miterlimit="10" stroke-linecap="round" stroke-linejoin="round"/>
<path d="M914.328 333.405L898.102 399.532L901.72 528.77" stroke="#F3F3F3" stroke-width="2.88" stroke-miterlimit="10" stroke-linecap="round" stroke-linejoin="round"/>
<path d="M909.991 351.082L851.613 325.603L844.54 398.772L836.793 478.422L841.383 602.647L821.321 682.121L824.668 737.616L789.379 847.28" stroke="#F3F3F3" stroke-width="2.88" stroke-miterlimit="10" stroke-linecap="round" stroke-linejoin="round"/>
<path d="M855.925 605.62L890.485 664.637L909.991 616.716L929.336 529.809L951.486 439.711" stroke="#F3F3F3" stroke-width="2.88" stroke-miterlimit="10" stroke-linecap="round" stroke-linejoin="round"/>
<path d="M939.355 439.712L951.486 393.989" stroke="#F3F3F3" stroke-width="2.88" stroke-miterlimit="10" stroke-linecap="round" stroke-linejoin="round"/>
<path d="M961.422 441.955L971.85 405.428" stroke="#F3F3F3" stroke-width="2.88" stroke-miterlimit="10" stroke-linecap="round" stroke-linejoin="round"/>
<path d="M699.805 430.349L714.358 489.884L707.374 528.77V574.579L663.938 721.911L766.025 787.699" stroke="#F3F3F3" stroke-width="2.88" stroke-miterlimit="10" stroke-linecap="round" stroke-linejoin="round"/>
<path d="M827.732 88.6079L806.639 142.427L899.358 141.842L922.023 195.018L885.165 291.769L794.174 265.175L714.946 238.947" stroke="#F3F3F3" stroke-width="2.88" stroke-miterlimit="10" stroke-linecap="round" stroke-linejoin="round"/>
<path d="M993.551 270.477L905.288 238.947" stroke="#F3F3F3" stroke-width="2.88" stroke-miterlimit="10" stroke-linecap="round" stroke-linejoin="round"/>
<path d="M1002.01 243.779L1006.42 220.339" stroke="#F3F3F3" stroke-width="2.88" stroke-miterlimit="10" stroke-linecap="round" stroke-linejoin="round"/>
<path d="M1004.22 139.345L1021.27 185.554" stroke="#F3F3F3" stroke-width="2.88" stroke-miterlimit="10" stroke-linecap="round" stroke-linejoin="round"/>
<path d="M1207.36 144.768L1002.01 207.042" stroke="#F3F3F3" stroke-width="2.88" stroke-miterlimit="10" stroke-linecap="round" stroke-linejoin="round"/>
<path d="M1016.9 202.526L1032.54 150.816L1026.36 132.047" stroke="#F3F3F3" stroke-width="2.88" stroke-miterlimit="10" stroke-linecap="round" stroke-linejoin="round"/>
<path d="M1024.95 175.903L1067.82 166.99" stroke="#F3F3F3" stroke-width="2.88" stroke-miterlimit="10" stroke-linecap="round" stroke-linejoin="round"/>
<path d="M1056.82 141.842L1032.54 150.816" stroke="#F3F3F3" stroke-width="2.88" stroke-miterlimit="10" stroke-linecap="round" stroke-linejoin="round"/>
<path d="M903.704 136.793L931.467 157.025V183.069L922.023 195.018" stroke="#F3F3F3" stroke-width="2.88" stroke-miterlimit="10" stroke-linecap="round" stroke-linejoin="round"/>
<path d="M939.355 201.691L945.42 183.069L1003.29 197.158" stroke="#F3F3F3" stroke-width="2.88" stroke-miterlimit="10" stroke-linecap="round" stroke-linejoin="round"/>
<path d="M992.22 166.99L945.42 155.228V134.866" stroke="#F3F3F3" stroke-width="2.88" stroke-miterlimit="10" stroke-linecap="round" stroke-linejoin="round"/>
<path d="M1024.72 276.531L1037.63 301.849L1082.42 272.686" stroke="#F3F3F3" stroke-width="2.88" stroke-miterlimit="10" stroke-linecap="round" stroke-linejoin="round"/>
<path d="M1024.72 330.015L1006.42 410.56" stroke="#F3F3F3" stroke-width="2.88" stroke-miterlimit="10" stroke-linecap="round" stroke-linejoin="round"/>
<path d="M1130.66 254.712L1160.71 266.808" stroke="#F3F3F3" stroke-width="2.88" stroke-miterlimit="10" stroke-linecap="round" stroke-linejoin="round"/>
<path d="M1158.5 245.099L1151.6 263.142" stroke="#F3F3F3" stroke-width="2.88" stroke-miterlimit="10" stroke-linecap="round" stroke-linejoin="round"/>
<path d="M1201.62 197.812L1313.19 214.772" stroke="#F3F3F3" stroke-width="2.88" stroke-miterlimit="10" stroke-linecap="round" stroke-linejoin="round"/>
<path d="M1233.24 260.76L1244.26 204.294" stroke="#F3F3F3" stroke-width="2.88" stroke-miterlimit="10" stroke-linecap="round" stroke-linejoin="round"/>
<path d="M1192.25 228.521L1237.03 241.354" stroke="#F3F3F3" stroke-width="2.88" stroke-miterlimit="10" stroke-linecap="round" stroke-linejoin="round"/>
<path d="M1304.35 259.072L1364.06 270.477L1385.71 264.775L1393.45 220.1" stroke="#F3F3F3" stroke-width="2.88" stroke-miterlimit="10" stroke-linecap="round" stroke-linejoin="round"/>
<path d="M1435.72 230.367L1418.5 279.287L1385.71 264.775" stroke="#F3F3F3" stroke-width="2.88" stroke-miterlimit="10" stroke-linecap="round" stroke-linejoin="round"/>
<path d="M1139.36 95.9603L1155.05 150.816L1192.25 104.502L1210.35 106.608L1214.64 76.0278" stroke="#F3F3F3" stroke-width="2.88" stroke-miterlimit="10" stroke-linecap="round" stroke-linejoin="round"/>
<path d="M714.862 207.042L767.753 220.339" stroke="#F3F3F3" stroke-width="2.88" stroke-miterlimit="10" stroke-linecap="round" stroke-linejoin="round"/>
<path d="M686.39 236.64L681.278 201.691" stroke="#F3F3F3" stroke-width="2.88" stroke-miterlimit="10" stroke-linecap="round" stroke-linejoin="round"/>
<path d="M698.389 209.516L665.623 212.537" stroke="#F3F3F3" stroke-width="2.88" stroke-miterlimit="10" stroke-linecap="round" stroke-linejoin="round"/>
<path d="M818.366 234.938L785.264 231.732" stroke="#F3F3F3" stroke-width="2.88" stroke-miterlimit="10" stroke-linecap="round" stroke-linejoin="round"/>
<path d="M681.278 362.657C681.278 362.657 694.256 357.09 698.391 362.634C698.391 362.634 703.112 346.503 718.88 354.76C718.88 354.76 721.345 351.085 731.223 351.085H808.485" stroke="#F3F3F3" stroke-width="2.88" stroke-miterlimit="10" stroke-linecap="round" stroke-linejoin="round"/>
<path d="M693.622 398.887L740.298 383.468" stroke="#F3F3F3" stroke-width="2.88" stroke-miterlimit="10" stroke-linecap="round" stroke-linejoin="round"/>
<path d="M698.388 362.634L708.451 393.989" stroke="#F3F3F3" stroke-width="2.88" stroke-miterlimit="10" stroke-linecap="round" stroke-linejoin="round"/>
<path d="M718.877 354.757L728.312 387.428" stroke="#F3F3F3" stroke-width="2.88" stroke-miterlimit="10" stroke-linecap="round" stroke-linejoin="round"/>
<path d="M-14.8032 -623.501C-14.8032 -623.501 90.3168 -495.341 155.117 -446.381C219.917 -397.421 445.997 -207.341 466.157 -181.421C486.317 -155.501 517.997 -136.781 526.637 -120.941C535.277 -105.101 610.157 155.539 625.997 205.939C641.837 256.339 690.797 393.139 690.797 393.139C690.797 393.139 705.197 427.699 726.797 421.939C726.797 421.939 752.593 420.499 736.813 370.099C721.037 319.699 691.672 205.21 747.395 55.0962C747.395 55.0962 824.115 211.699 848.174 240.499C872.237 269.299 941.357 378.739 960.077 393.139C978.797 407.539 990.317 434.899 1006.16 453.619C1022 472.339 1026.32 496.819 1055.12 519.859C1083.92 542.899 1104.08 601.939 1091.12 673.939C1078.16 745.939 1122.8 852.499 1122.8 852.499" stroke="#F3F3F3" stroke-width="2.88" stroke-miterlimit="10" stroke-linecap="round" stroke-linejoin="round"/>
<path d="M-14.8032 67.6992C-14.8032 67.6992 323.597 469.459 335.117 491.059C346.637 512.659 451.757 771.027 464.717 773.602C477.677 776.176 524.716 702.739 524.716 702.739" stroke="#F3F3F3" stroke-width="2.88" stroke-miterlimit="10" stroke-linecap="round" stroke-linejoin="round"/>
<path d="M-14.8032 625.854C-14.8032 625.854 44.2368 590.419 94.6368 574.579C145.037 558.739 298.031 516.25 340.335 502.216C382.64 488.182 464.806 476.659 515.163 469.459C565.52 462.259 700.877 426.259 726.797 421.939C726.797 421.939 740.822 422.241 741.133 406.396C741.133 406.396 774.769 385.939 836.461 397.459C898.154 408.979 943.592 385.38 967.674 400.06" stroke="#F3F3F3" stroke-width="2.88" stroke-miterlimit="10" stroke-linecap="round" stroke-linejoin="round"/>
<path d="M740.779 685.523L568.587 547.435C568.587 547.435 551.822 486.106 560.828 459.062C569.834 432.019 566.853 159.859 584.905 67.6992" stroke="#F3F3F3" stroke-width="2.88" stroke-miterlimit="10" stroke-linecap="round" stroke-linejoin="round"/>
<path d="M231.437 175.699C231.437 175.699 277.517 263.539 325.037 316.819C372.557 370.099 430.157 426.259 435.917 449.299C441.677 472.339 401.768 644.961 401.768 644.961L486.305 685.523" stroke="#F3F3F3" stroke-width="2.88" stroke-miterlimit="10" stroke-linecap="round" stroke-linejoin="round"/>
<path d="M133.517 852.499C133.517 852.499 211.711 738.82 215.815 677.579C219.917 616.339 201.197 481.351 199.757 420.683C198.317 360.019 188.479 185.482 188.479 185.482" stroke="#F3F3F3" stroke-width="2.88" stroke-miterlimit="10" stroke-linecap="round" stroke-linejoin="round"/>
<path d="M795.162 685.522L726.797 421.939L1101.86 451.606" stroke="#F3F3F3" stroke-width="2.88" stroke-miterlimit="10" stroke-linecap="round" stroke-linejoin="round"/>
<path d="M942.797 623.539L996.077 440.028C996.077 440.028 1079.4 362.899 1168.78 318.259C1258.16 273.619 1426.64 221.779 1452.56 159.859" stroke="#F3F3F3" stroke-width="2.88" stroke-miterlimit="10" stroke-linecap="round" stroke-linejoin="round"/>
<path d="M1452.56 296.659C1452.56 296.659 1406.48 336.979 1255.28 393.139C1104.08 449.299 798.391 570.259 775.555 581.779C752.717 593.299 734.734 669.271 742.7 703.917C750.666 738.564 785.448 852.499 785.448 852.499" stroke="#DEDEDE" stroke-width="2.88" stroke-miterlimit="10" stroke-linecap="round" stroke-linejoin="round"/>
<path d="M-14.8032 -141.101C-14.8032 -141.101 127.757 -178.541 209.837 -73.4209C291.917 31.6991 357.074 141.643 357.074 141.643C357.074 141.643 438.797 383.059 458.957 432.019C479.117 480.979 506.477 505.459 490.637 542.899C474.797 580.339 456.077 668.179 456.077 668.179" stroke="#DEDEDE" stroke-width="2.88" stroke-miterlimit="10" stroke-linecap="round" stroke-linejoin="round"/>
<path d="M-14.8032 99.3789C-14.8032 99.3789 176.717 159.859 234.317 182.899C291.917 205.939 449.698 289.459 495.369 311.059C541.04 332.659 726.797 421.939 726.797 421.939L796.012 688.52L821.321 682.121L760.205 767.801" stroke="#DEDEDE" stroke-width="2.88" stroke-miterlimit="10" stroke-linecap="round" stroke-linejoin="round"/>
<path d="M648.887 18.2058C648.887 18.2058 739.984 -66.2214 754.269 -89.2614C768.554 -112.301 803.114 -221.741 836.234 -226.061C869.354 -230.381 1070.95 -249.101 1093.99 -240.461C1117.03 -231.821 1227.91 -174.221 1256.71 -171.341C1285.51 -168.461 1416.55 -174.221 1452.55 -179.981" stroke="#DEDEDE" stroke-width="2.88" stroke-miterlimit="10" stroke-linecap="round" stroke-linejoin="round"/>
<path d="M-14.8032 220.339C-14.8032 220.339 139.277 198.739 231.437 175.699C323.597 152.659 563.898 83.5389 591.347 66.2589C618.797 48.9789 635.806 15.8589 656.101 17.2989C676.397 18.7389 948.557 154.099 993.197 142.579C1037.84 131.059 1239.44 47.5389 1452.56 43.2189" stroke="#DEDEDE" stroke-width="2.88" stroke-miterlimit="10" stroke-linecap="round" stroke-linejoin="round"/>
<path d="M1151.6 -616.301C1151.6 -616.301 1298.48 -365.741 1304.24 -336.941C1310 -308.141 1298.48 27.6269 1304.24 57.7431C1310 87.8592 1452.56 316.819 1452.56 316.819" stroke="#DEDEDE" stroke-width="2.88" stroke-miterlimit="10" stroke-linecap="round" stroke-linejoin="round"/>
</g>
</svg>
